<svg preserveAspectRatio="none" width="100%" height="100%" overflow="visible" style="display: block;" viewBox="0 0 188.916 225.208" fill="none" xmlns="http://www.w3.org/2000/svg">
<g id="Group">
<path id="Vector" opacity="0.5" d="M64.0601 96.136L187.698 56.6127" stroke="var(--stroke-0, #F0EEED)" stroke-width="0.0700817" stroke-miterlimit="10" stroke-linecap="round"/>
<g id="Group_2">
<path id="Vector_2" d="M162.869 19.9101L188.858 74.1318" stroke="var(--stroke-0, #F0EEED)" stroke-width="0.116803" stroke-miterlimit="10" stroke-linecap="round"/>
<path id="Vector_3" d="M188.857 136.033L110.35 222.385" stroke="var(--stroke-0, #F0EEED)" stroke-width="0.116803" stroke-miterlimit="10" stroke-linecap="round"/>
<path id="Vector_4" d="M188.857 132.585L110.35 206.401" stroke="var(--stroke-0, #F0EEED)" stroke-width="0.116803" stroke-miterlimit="10" stroke-linecap="round"/>
<path id="Vector_5" d="M0.0584173 88.3435L59.3575 62.4323" stroke="var(--stroke-0, #F0EEED)" stroke-width="0.116803" stroke-miterlimit="10" stroke-linecap="round"/>
<path id="Vector_6" d="M162.869 98.2649L52.7474 62.4323" stroke="var(--stroke-0, #F0EEED)" stroke-width="0.116803" stroke-miterlimit="10" stroke-linecap="round"/>
<path id="Vector_7" d="M0.0584173 137.756L63.5427 160.798" stroke="var(--stroke-0, #F0EEED)" stroke-width="0.116803" stroke-miterlimit="10" stroke-linecap="round"/>
<path id="Vector_8" d="M120.264 206.4L0.0584173 144.337" stroke="var(--stroke-0, #F0EEED)" stroke-width="0.116803" stroke-miterlimit="10" stroke-linecap="round"/>
<path id="Vector_9" d="M120.264 222.385L0.0584173 150.92" stroke="var(--stroke-0, #F0EEED)" stroke-width="0.116803" stroke-miterlimit="10" stroke-linecap="round"/>
<path id="Vector_10" d="M115.714 89.1819L188.857 106.836" stroke="var(--stroke-0, #F0EEED)" stroke-width="0.116803" stroke-miterlimit="10" stroke-linecap="round"/>
<path id="Vector_11" d="M123.572 89.8028L0.0584173 109.235" stroke="var(--stroke-0, #F0EEED)" stroke-width="0.116803" stroke-miterlimit="10" stroke-linecap="round"/>
<path id="Vector_12" d="M0.0584173 136.399L127.027 176.938" stroke="var(--stroke-0, #F0EEED)" stroke-width="0.116803" stroke-miterlimit="10" stroke-linecap="round"/>
<path id="Vector_13" d="M117.455 176.939L188.857 127.835" stroke="var(--stroke-0, #F0EEED)" stroke-width="0.116803" stroke-miterlimit="10" stroke-linecap="round"/>
<path id="Vector_14" d="M174.925 24.6118L0.0584173 98.0116" stroke="var(--stroke-0, #F0EEED)" stroke-width="0.116803" stroke-miterlimit="10" stroke-linecap="round"/>
<path id="Vector_15" d="M63.5427 113.795L0.0584173 115.298" stroke="var(--stroke-0, #F0EEED)" stroke-width="0.116803" stroke-miterlimit="10" stroke-linecap="round"/>
<path id="Vector_16" d="M52.7474 113.795L188.858 116.579" stroke="var(--stroke-0, #F0EEED)" stroke-width="0.116803" stroke-miterlimit="10" stroke-linecap="round"/>
<path id="Vector_17" d="M55.962 160.798L188.857 121.458" stroke="var(--stroke-0, #F0EEED)" stroke-width="0.116803" stroke-miterlimit="10" stroke-linecap="round"/>
</g>
<g id="Group_3" opacity="0.5">
<path id="Vector_18" d="M162.869 18.2131L188.858 72.4402" stroke="var(--stroke-0, #F0EEED)" stroke-width="0.0700817" stroke-miterlimit="10" stroke-linecap="round"/>
<path id="Vector_19" d="M188.857 134.341L110.35 220.688" stroke="var(--stroke-0, #F0EEED)" stroke-width="0.0700817" stroke-miterlimit="10" stroke-linecap="round"/>
<path id="Vector_20" d="M188.857 130.893L110.35 204.704" stroke="var(--stroke-0, #F0EEED)" stroke-width="0.0700817" stroke-miterlimit="10" stroke-linecap="round"/>
<path id="Vector_21" d="M0.0584173 86.6466L59.3575 60.7354" stroke="var(--stroke-0, #F0EEED)" stroke-width="0.0700817" stroke-miterlimit="10" stroke-linecap="round"/>
<path id="Vector_22" d="M162.869 96.5734L52.7474 60.7355" stroke="var(--stroke-0, #F0EEED)" stroke-width="0.0700817" stroke-miterlimit="10" stroke-linecap="round"/>
<path id="Vector_23" d="M0.0584173 136.064L63.5427 159.101" stroke="var(--stroke-0, #F0EEED)" stroke-width="0.0700817" stroke-miterlimit="10" stroke-linecap="round"/>
<path id="Vector_24" d="M120.264 204.704L0.0584173 142.647" stroke="var(--stroke-0, #F0EEED)" stroke-width="0.0700817" stroke-miterlimit="10" stroke-linecap="round"/>
<path id="Vector_25" d="M120.264 220.688L0.0584173 149.228" stroke="var(--stroke-0, #F0EEED)" stroke-width="0.0700817" stroke-miterlimit="10" stroke-linecap="round"/>
<path id="Vector_26" d="M115.714 87.49L188.857 105.144" stroke="var(--stroke-0, #F0EEED)" stroke-width="0.0700817" stroke-miterlimit="10" stroke-linecap="round"/>
<path id="Vector_27" d="M123.572 88.111L0.0584173 107.543" stroke="var(--stroke-0, #F0EEED)" stroke-width="0.0700817" stroke-miterlimit="10" stroke-linecap="round"/>
<path id="Vector_28" d="M0.0584173 134.708L127.027 175.242" stroke="var(--stroke-0, #F0EEED)" stroke-width="0.0700817" stroke-miterlimit="10" stroke-linecap="round"/>
<path id="Vector_29" d="M117.455 175.242L188.857 126.138" stroke="var(--stroke-0, #F0EEED)" stroke-width="0.0700817" stroke-miterlimit="10" stroke-linecap="round"/>
<path id="Vector_30" d="M174.925 22.915L0.0584173 96.3147" stroke="var(--stroke-0, #F0EEED)" stroke-width="0.0700817" stroke-miterlimit="10" stroke-linecap="round"/>
<path id="Vector_31" d="M63.5427 112.104L0.0584173 113.601" stroke="var(--stroke-0, #F0EEED)" stroke-width="0.0700817" stroke-miterlimit="10" stroke-linecap="round"/>
<path id="Vector_32" d="M52.7474 112.104L188.858 114.887" stroke="var(--stroke-0, #F0EEED)" stroke-width="0.0700817" stroke-miterlimit="10" stroke-linecap="round"/>
<path id="Vector_33" d="M55.962 159.1L188.857 119.766" stroke="var(--stroke-0, #F0EEED)" stroke-width="0.0700817" stroke-miterlimit="10" stroke-linecap="round"/>
</g>
<g id="Group_4" opacity="0.5">
<path id="Vector_34" d="M162.869 21.2072L188.858 75.4288" stroke="var(--stroke-0, #F0EEED)" stroke-width="0.0700817" stroke-miterlimit="10" stroke-linecap="round"/>
<path id="Vector_35" d="M188.857 137.335L110.35 223.682" stroke="var(--stroke-0, #F0EEED)" stroke-width="0.0700817" stroke-miterlimit="10" stroke-linecap="round"/>
<path id="Vector_36" d="M188.857 133.887L110.35 207.697" stroke="var(--stroke-0, #F0EEED)" stroke-width="0.0700817" stroke-miterlimit="10" stroke-linecap="round"/>
<path id="Vector_37" d="M0.0584173 89.6406L59.3575 63.7294" stroke="var(--stroke-0, #F0EEED)" stroke-width="0.0700817" stroke-miterlimit="10" stroke-linecap="round"/>
<path id="Vector_38" d="M162.869 99.5673L52.7474 63.7294" stroke="var(--stroke-0, #F0EEED)" stroke-width="0.0700817" stroke-miterlimit="10" stroke-linecap="round"/>
<path id="Vector_39" d="M0.0584173 139.059L63.5427 162.095" stroke="var(--stroke-0, #F0EEED)" stroke-width="0.0700817" stroke-miterlimit="10" stroke-linecap="round"/>
<path id="Vector_40" d="M120.264 207.698L0.0584173 145.641" stroke="var(--stroke-0, #F0EEED)" stroke-width="0.0700817" stroke-miterlimit="10" stroke-linecap="round"/>
<path id="Vector_41" d="M120.264 223.682L0.0584173 152.222" stroke="var(--stroke-0, #F0EEED)" stroke-width="0.0700817" stroke-miterlimit="10" stroke-linecap="round"/>
<path id="Vector_42" d="M115.714 90.484L188.857 108.138" stroke="var(--stroke-0, #F0EEED)" stroke-width="0.0700817" stroke-miterlimit="10" stroke-linecap="round"/>
<path id="Vector_43" d="M123.572 91.1052L0.0584173 110.537" stroke="var(--stroke-0, #F0EEED)" stroke-width="0.0700817" stroke-miterlimit="10" stroke-linecap="round"/>
<path id="Vector_44" d="M0.0584173 137.697L127.027 178.236" stroke="var(--stroke-0, #F0EEED)" stroke-width="0.0700817" stroke-miterlimit="10" stroke-linecap="round"/>
<path id="Vector_45" d="M117.455 178.236L188.857 129.132" stroke="var(--stroke-0, #F0EEED)" stroke-width="0.0700817" stroke-miterlimit="10" stroke-linecap="round"/>
<path id="Vector_46" d="M174.925 25.9089L0.0584173 99.3087" stroke="var(--stroke-0, #F0EEED)" stroke-width="0.0700817" stroke-miterlimit="10" stroke-linecap="round"/>
<path id="Vector_47" d="M63.5427 115.098L0.0584173 116.596" stroke="var(--stroke-0, #F0EEED)" stroke-width="0.0700817" stroke-miterlimit="10" stroke-linecap="round"/>
<path id="Vector_48" d="M52.7474 115.098L188.858 117.882" stroke="var(--stroke-0, #F0EEED)" stroke-width="0.0700817" stroke-miterlimit="10" stroke-linecap="round"/>
<path id="Vector_49" d="M55.962 162.096L188.857 122.762" stroke="var(--stroke-0, #F0EEED)" stroke-width="0.0700817" stroke-miterlimit="10" stroke-linecap="round"/>
</g>
<g id="Group_5">
<path id="Vector_50" d="M2.14205 87.5871V152.168L3.88818 153.195V86.8251L2.14205 87.5871Z" stroke="var(--stroke-0, #F0EEED)" stroke-width="0.116803" stroke-miterlimit="10" stroke-linecap="round"/>
<path id="Vector_51" d="M3.88818 86.8249L5.79137 87.295V152.53L3.88818 153.194" stroke="var(--stroke-0, #F0EEED)" stroke-width="0.116803" stroke-miterlimit="10" stroke-linecap="round"/>
</g>
<path id="Vector_52" d="M60.1615 159.555V64.8425L64.0602 66.1124V158.398L60.1615 159.555Z" stroke="var(--stroke-0, #F0EEED)" stroke-width="0.116803" stroke-miterlimit="10" stroke-linecap="round"/>
<path id="Vector_53" d="M60.1615 64.8425L56.4106 66.1934V158.198L60.1615 159.555V64.8425Z" stroke="var(--stroke-0, #F0EEED)" stroke-width="0.116803" stroke-miterlimit="10" stroke-linecap="round"/>
<path id="Vector_54" d="M78.4725 97.2329V161.435L81.3042 162.338V96.8006L78.4725 97.2329Z" stroke="var(--stroke-0, #F0EEED)" stroke-width="0.116803" stroke-miterlimit="10" stroke-linecap="round"/>
<path id="Vector_55" d="M81.3046 96.8006L84.1871 97.3248V161.122L81.3046 162.338" stroke="var(--stroke-0, #F0EEED)" stroke-width="0.116803" stroke-miterlimit="10" stroke-linecap="round"/>
<path id="Vector_56" d="M120.491 174.848V90.3269L116.476 90.9213V173.567L120.491 174.848Z" stroke="var(--stroke-0, #F0EEED)" stroke-width="0.116803" stroke-miterlimit="10" stroke-linecap="round"/>
<path id="Vector_57" d="M120.491 90.3269L124.135 91.2131V172.34L120.491 174.848V90.3269Z" stroke="var(--stroke-0, #F0EEED)" stroke-width="0.116803" stroke-miterlimit="10" stroke-linecap="round"/>
<path id="Vector_58" d="M166.763 28.0377V160.333L168.938 157.94V32.5769L166.763 28.0377Z" stroke="var(--stroke-0, #F0EEED)" stroke-width="0.233606" stroke-miterlimit="10" stroke-linecap="round"/>
<path id="Vector_59" d="M166.763 28.0377L163.364 29.4643V159.788L166.763 160.333V28.0377Z" stroke="var(--stroke-0, #F0EEED)" stroke-width="0.233606" stroke-miterlimit="10" stroke-linecap="round"/>
<path id="Vector_60" d="M185.531 67.1936V139.691L184.229 141.128V64.4701L185.531 67.1936Z" stroke="var(--stroke-0, #F0EEED)" stroke-width="0.116803" stroke-miterlimit="10" stroke-linecap="round"/>
<path id="Vector_61" d="M184.229 64.4701L182.182 65.2807V141.128H184.229" stroke="var(--stroke-0, #F0EEED)" stroke-width="0.116803" stroke-miterlimit="10" stroke-linecap="round"/>
<g id="Group_6">
<path id="Vector_62" d="M104.41 54.208V150.298L107.353 150.92V52.976L104.41 54.208Z" stroke="var(--stroke-0, #F0EEED)" stroke-width="0.116803" stroke-miterlimit="10" stroke-linecap="round"/>
<path id="Vector_63" d="M107.352 52.9762L110.35 54.8567V149.277L107.352 150.92V52.9762Z" stroke="var(--stroke-0, #F0EEED)" stroke-width="0.116803" stroke-miterlimit="10" stroke-linecap="round"/>
</g>
<path id="Vector_64" d="M169.622 160.798L0.0584173 133.498" stroke="var(--stroke-0, #F0EEED)" stroke-width="0.116803" stroke-miterlimit="10" stroke-linecap="round"/>
<path id="Vector_65" d="M182.182 155.151L154.073 151.758V98.3952" stroke="var(--stroke-0, #F0EEED)" stroke-width="0.233606" stroke-miterlimit="10" stroke-linecap="round"/>
<path id="Vector_66" d="M150.553 42.7631L119.095 54.9811" stroke="var(--stroke-0, #F0EEED)" stroke-width="0.233606" stroke-miterlimit="10" stroke-linecap="round"/>
<path id="Vector_67" d="M121.081 52.479V90.3271" stroke="var(--stroke-0, #F0EEED)" stroke-width="0.233606" stroke-miterlimit="10" stroke-linecap="round"/>
<path id="Vector_68" d="M121.081 54.2133L127.512 57.4934L149.033 49.6579" stroke="var(--stroke-0, #F0EEED)" stroke-width="0.233606" stroke-miterlimit="10" stroke-linecap="round"/>
<path id="Vector_69" d="M127.512 57.4934V91.5914" stroke="var(--stroke-0, #F0EEED)" stroke-width="0.233606" stroke-miterlimit="10" stroke-linecap="round"/>
<path id="Vector_70" d="M129.79 92.5697V59.3742L149.034 52.479" stroke="var(--stroke-0, #F0EEED)" stroke-width="0.233606" stroke-miterlimit="10" stroke-linecap="round"/>
<path id="Vector_71" d="M129.79 59.3746L131.397 60.4715L149.034 54.2031" stroke="var(--stroke-0, #F0EEED)" stroke-width="0.233606" stroke-miterlimit="10" stroke-linecap="round"/>
<path id="Vector_72" d="M131.397 60.4711V92.9695" stroke="var(--stroke-0, #F0EEED)" stroke-width="0.233606" stroke-miterlimit="10" stroke-linecap="round"/>
<path id="Vector_73" d="M141.541 55.1648V95.4123" stroke="var(--stroke-0, #F0EEED)" stroke-width="0.233606" stroke-miterlimit="10" stroke-linecap="round"/>
<path id="Vector_74" d="M143.009 95.7684V54.6347L144.205 55.9154V96.0548" stroke="var(--stroke-0, #F0EEED)" stroke-width="0.233606" stroke-miterlimit="10" stroke-linecap="round" stroke-linejoin="round"/>
<path id="Vector_75" d="M171.89 55.3267V90.3271L180.237 95.2877V68.1769L171.89 55.3267Z" stroke="var(--stroke-0, #F0EEED)" stroke-width="0.233606" stroke-miterlimit="10" stroke-linecap="round"/>
<path id="Vector_76" d="M180.237 68.1769H177.872L171.89 60.8656" stroke="var(--stroke-0, #F0EEED)" stroke-width="0.233606" stroke-miterlimit="10" stroke-linecap="round"/>
<path id="Vector_77" d="M177.873 68.1764V93.7958" stroke="var(--stroke-0, #F0EEED)" stroke-width="0.233606" stroke-miterlimit="10" stroke-linecap="round"/>
<path id="Vector_78" d="M177.068 93.4024V68.8043L171.89 62.4332" stroke="var(--stroke-0, #F0EEED)" stroke-width="0.233606" stroke-miterlimit="10" stroke-linecap="round"/>
<path id="Vector_79" d="M177.068 68.8048H176.421L171.89 63.7133" stroke="var(--stroke-0, #F0EEED)" stroke-width="0.233606" stroke-miterlimit="10" stroke-linecap="round"/>
<path id="Vector_80" d="M176.422 68.8036V93.018" stroke="var(--stroke-0, #F0EEED)" stroke-width="0.233606" stroke-miterlimit="10" stroke-linecap="round"/>
<path id="Vector_81" d="M112.721 172.551V101.951L86.4135 105.161V163.97L93.1578 160.798V104.339" stroke="var(--stroke-0, #F0EEED)" stroke-width="0.233606" stroke-miterlimit="10" stroke-linecap="round"/>
<path id="Vector_82" d="M93.1576 160.798L112.721 166.699" stroke="var(--stroke-0, #F0EEED)" stroke-width="0.233606" stroke-miterlimit="10" stroke-linecap="round"/>
<path id="Vector_83" d="M101.958 109.97L95.3522 110.597V124.933H101.958V109.97Z" stroke="var(--stroke-0, #F0EEED)" stroke-width="0.233606" stroke-miterlimit="10" stroke-linecap="round"/>
<path id="Vector_84" d="M103.39 109.97V124.933H111.515V109.235L103.39 109.97Z" stroke="var(--stroke-0, #F0EEED)" stroke-width="0.233606" stroke-miterlimit="10" stroke-linecap="round"/>
<path id="Vector_85" d="M95.3522 126.786H101.958V140.577L95.3522 140.058V126.786Z" stroke="var(--stroke-0, #F0EEED)" stroke-width="0.233606" stroke-miterlimit="10" stroke-linecap="round"/>
<path id="Vector_86" d="M103.39 126.786V140.577L111.515 141.128V126.997L103.39 126.786Z" stroke="var(--stroke-0, #F0EEED)" stroke-width="0.233606" stroke-miterlimit="10" stroke-linecap="round"/>
<path id="Vector_87" d="M128.261 101.951V115.341L151.219 115.811V105.317L128.261 101.951Z" stroke="var(--stroke-0, #F0EEED)" stroke-width="0.233606" stroke-miterlimit="10" stroke-linecap="round"/>
<path id="Vector_88" d="M148.646 115.757V104.938" stroke="var(--stroke-0, #F0EEED)" stroke-width="0.233606" stroke-miterlimit="10" stroke-linecap="round"/>
<path id="Vector_89" d="M138.94 103.518V115.563" stroke="var(--stroke-0, #F0EEED)" stroke-width="0.233606" stroke-miterlimit="10" stroke-linecap="round"/>
<path id="Vector_90" d="M140.821 103.793V115.563" stroke="var(--stroke-0, #F0EEED)" stroke-width="0.233606" stroke-miterlimit="10" stroke-linecap="round"/>
<path id="Vector_91" d="M137.591 103.518V115.541" stroke="var(--stroke-0, #F0EEED)" stroke-width="0.233606" stroke-miterlimit="10" stroke-linecap="round"/>
<path id="Vector_92" d="M171.89 108.294V116.233L180.237 116.406V109.678L171.89 108.294Z" stroke="var(--stroke-0, #F0EEED)" stroke-width="0.233606" stroke-miterlimit="10" stroke-linecap="round"/>
<path id="Vector_93" d="M178.958 109.462V116.379" stroke="var(--stroke-0, #F0EEED)" stroke-width="0.233606" stroke-miterlimit="10" stroke-linecap="round"/>
<path id="Vector_94" d="M176.062 108.987V116.32" stroke="var(--stroke-0, #F0EEED)" stroke-width="0.233606" stroke-miterlimit="10" stroke-linecap="round"/>
<path id="Vector_95" d="M174.925 108.879V116.298" stroke="var(--stroke-0, #F0EEED)" stroke-width="0.233606" stroke-miterlimit="10" stroke-linecap="round"/>
<path id="Vector_96" d="M174.209 108.678V116.281" stroke="var(--stroke-0, #F0EEED)" stroke-width="0.233606" stroke-miterlimit="10" stroke-linecap="round"/>
<path id="Vector_97" d="M2.14205 86.0424V145.419L113.867 203.094L166.763 153.293L154.074 151.758L120.491 174.848V90.3276L66.6056 98.7683V157.648" stroke="var(--stroke-0, #F0EEED)" stroke-width="0.5" stroke-miterlimit="10" stroke-linecap="round"/>
<path id="Vector_98" d="M166.763 24.6118V101.508" stroke="var(--stroke-0, #F0EEED)" stroke-width="0.467211" stroke-miterlimit="10" stroke-linecap="round"/>
<path id="Vector_99" d="M56.535 63.6643V113.968H60.1612V159.555L66.6052 157.647L86.4132 163.97" stroke="var(--stroke-0, #F0EEED)" stroke-width="0.5" stroke-miterlimit="10" stroke-linecap="round"/>
<path id="Vector_100" d="M19.6444 144.862L5.79087 147.148V115.298L19.3811 114.839L19.6444 144.862ZM19.6444 144.862L60.1611 159.555" stroke="var(--stroke-0, #F0EEED)" stroke-width="0.467211" stroke-miterlimit="10" stroke-linecap="round"/>
<path id="Vector_101" d="M2.14205 145.419V152.168L113.83 218.559V203.094" stroke="var(--stroke-0, #F0EEED)" stroke-width="0.467211" stroke-miterlimit="10" stroke-linecap="round"/>
<path id="Vector_102" d="M113.83 218.559L185.532 139.691V67.1936L166.763 28.0377L104.411 54.2083V79.2441L56.5353 63.6649L2.14205 87.5876" stroke="var(--stroke-0, #F0EEED)" stroke-width="0.5" stroke-miterlimit="10" stroke-linecap="round"/>
<path id="Vector_103" d="M104.41 79.2446V92.8298" stroke="var(--stroke-0, #F0EEED)" stroke-width="0.5" stroke-miterlimit="10" stroke-linecap="round"/>
<path id="Vector_104" d="M166.763 153.292V101.507" stroke="var(--stroke-0, #F0EEED)" stroke-width="0.5" stroke-miterlimit="10" stroke-linecap="round"/>
<path id="Vector_105" d="M120.491 90.3269L153.879 98.3948L154.074 151.757" stroke="var(--stroke-0, #F0EEED)" stroke-width="0.5" stroke-miterlimit="10" stroke-linecap="round"/>
<path id="Vector_106" d="M67.0393 75.6616V90.3275L100.618 98.0117V85.7667L67.0393 75.6616Z" stroke="var(--stroke-0, #F0EEED)" stroke-width="0.233606" stroke-miterlimit="10" stroke-linecap="round"/>
<path id="Vector_107" d="M100.618 85.7658L97.9111 86.5602L98.0497 97.4218" stroke="var(--stroke-0, #F0EEED)" stroke-width="0.233606" stroke-miterlimit="10" stroke-linecap="round"/>
<path id="Vector_108" d="M97.9107 86.5608L67.0393 77.5797" stroke="var(--stroke-0, #F0EEED)" stroke-width="0.233606" stroke-miterlimit="10" stroke-linecap="round"/>
<path id="Vector_109" d="M96.9822 97.1795V87.2473L67.0393 78.6282" stroke="var(--stroke-0, #F0EEED)" stroke-width="0.233606" stroke-miterlimit="10" stroke-linecap="round"/>
<path id="Vector_110" d="M96.9824 87.2466H96.2429V97.0113" stroke="var(--stroke-0, #F0EEED)" stroke-width="0.233606" stroke-miterlimit="10" stroke-linecap="round"/>
<path id="Vector_111" d="M90.0073 85.2366V95.5795" stroke="var(--stroke-0, #F0EEED)" stroke-width="0.233606" stroke-miterlimit="10" stroke-linecap="round"/>
<path id="Vector_112" d="M88.968 84.9398V95.2502" stroke="var(--stroke-0, #F0EEED)" stroke-width="0.233606" stroke-miterlimit="10" stroke-linecap="round"/>
<path id="Vector_113" d="M88.2513 84.9398V95.2178" stroke="var(--stroke-0, #F0EEED)" stroke-width="0.233606" stroke-miterlimit="10" stroke-linecap="round"/>
<path id="Vector_114" d="M78.4725 82.07V92.9424" stroke="var(--stroke-0, #F0EEED)" stroke-width="0.233606" stroke-miterlimit="10" stroke-linecap="round"/>
<path id="Vector_115" d="M77.0402 92.6121V81.5019" stroke="var(--stroke-0, #F0EEED)" stroke-width="0.233606" stroke-miterlimit="10" stroke-linecap="round"/>
<path id="Vector_116" d="M76.2001 81.2594V92.3804" stroke="var(--stroke-0, #F0EEED)" stroke-width="0.233606" stroke-miterlimit="10" stroke-linecap="round"/>
<path id="Vector_117" d="M56.5348 113.968L19.381 114.839" stroke="var(--stroke-0, #F0EEED)" stroke-width="0.467211" stroke-miterlimit="10" stroke-linecap="round"/>
<path id="Vector_118" d="M46.6774 78.4445V101.902" stroke="var(--stroke-0, #F0EEED)" stroke-width="0.233606" stroke-miterlimit="10" stroke-linecap="round"/>
<path id="Vector_119" d="M31.7981 84.6853V104.242" stroke="var(--stroke-0, #F0EEED)" stroke-width="0.233606" stroke-miterlimit="10" stroke-linecap="round"/>
<path id="Vector_120" d="M22.7672 88.4788V105.663" stroke="var(--stroke-0, #F0EEED)" stroke-width="0.233606" stroke-miterlimit="10" stroke-linecap="round"/>
<path id="Vector_121" d="M10.7749 93.5103V107.982" stroke="var(--stroke-0, #F0EEED)" stroke-width="0.233606" stroke-miterlimit="10" stroke-linecap="round"/>
<path id="Vector_122" d="M10.7749 93.5103L12.558 93.8021V107.268" stroke="var(--stroke-0, #F0EEED)" stroke-width="0.233606" stroke-miterlimit="10" stroke-linecap="round"/>
<path id="Vector_123" d="M12.5582 93.8026L22.7671 89.9596" stroke="var(--stroke-0, #F0EEED)" stroke-width="0.233606" stroke-miterlimit="10" stroke-linecap="round"/>
<path id="Vector_124" d="M31.7981 84.6853L34.2186 85.0258V103.804" stroke="var(--stroke-0, #F0EEED)" stroke-width="0.233606" stroke-miterlimit="10" stroke-linecap="round"/>
<path id="Vector_125" d="M34.2187 85.0272L46.6772 80.0113" stroke="var(--stroke-0, #F0EEED)" stroke-width="0.233606" stroke-miterlimit="10" stroke-linecap="round"/>
<path id="Vector_126" d="M34.9765 103.745V85.5719L46.6775 80.9787" stroke="var(--stroke-0, #F0EEED)" stroke-width="0.233606" stroke-miterlimit="10" stroke-linecap="round"/>
<path id="Vector_127" d="M41.6284 82.9558V102.696" stroke="var(--stroke-0, #F0EEED)" stroke-width="0.233606" stroke-miterlimit="10" stroke-linecap="round"/>
<path id="Vector_128" d="M42.5939 102.546V82.5786L43.2826 82.9568V102.438" stroke="var(--stroke-0, #F0EEED)" stroke-width="0.233606" stroke-miterlimit="10" stroke-linecap="round"/>
<path id="Vector_129" d="M34.9765 85.572L35.5128 85.8368V103.659" stroke="var(--stroke-0, #F0EEED)" stroke-width="0.233606" stroke-miterlimit="10" stroke-linecap="round"/>
<path id="Vector_130" d="M35.5118 85.8365L41.6279 83.534" stroke="var(--stroke-0, #F0EEED)" stroke-width="0.233606" stroke-miterlimit="10" stroke-linecap="round"/>
<path id="Vector_131" d="M43.2823 82.9571L46.6776 81.6058" stroke="var(--stroke-0, #F0EEED)" stroke-width="0.233606" stroke-miterlimit="10" stroke-linecap="round"/>
<path id="Vector_132" d="M13.1916 107.171V94.2453L22.7676 90.9003" stroke="var(--stroke-0, #F0EEED)" stroke-width="0.233606" stroke-miterlimit="10" stroke-linecap="round"/>
<path id="Vector_133" d="M17.9764 92.5746V106.414" stroke="var(--stroke-0, #F0EEED)" stroke-width="0.233606" stroke-miterlimit="10" stroke-linecap="round"/>
<path id="Vector_134" d="M18.6143 106.317V92.3483L19.0812 92.5752V106.241" stroke="var(--stroke-0, #F0EEED)" stroke-width="0.233606" stroke-miterlimit="10" stroke-linecap="round"/>
<path id="Vector_135" d="M13.1916 94.2442L13.6215 94.4279V107.1" stroke="var(--stroke-0, #F0EEED)" stroke-width="0.233606" stroke-miterlimit="10" stroke-linecap="round"/>
<path id="Vector_136" d="M13.6213 94.429L17.9774 92.9372" stroke="var(--stroke-0, #F0EEED)" stroke-width="0.233606" stroke-miterlimit="10" stroke-linecap="round"/>
<path id="Vector_137" d="M19.0812 92.5756L22.7675 91.2946" stroke="var(--stroke-0, #F0EEED)" stroke-width="0.233606" stroke-miterlimit="10" stroke-linecap="round"/>
<path id="Vector_138" d="M3.88815 68.8036V173.675" stroke="var(--stroke-0, #F0EEED)" stroke-width="0.0700817" stroke-miterlimit="10" stroke-linecap="round"/>
<path id="Vector_139" d="M56.4106 49.1934V205.617" stroke="var(--stroke-0, #F0EEED)" stroke-width="0.0700817" stroke-miterlimit="10" stroke-linecap="round"/>
<path id="Vector_140" d="M60.1615 50.917V210.161" stroke="var(--stroke-0, #F0EEED)" stroke-width="0.0700817" stroke-miterlimit="10" stroke-linecap="round"/>
<path id="Vector_141" d="M104.253 47.6261V225.173" stroke="var(--stroke-0, #F0EEED)" stroke-width="0.0700817" stroke-miterlimit="10" stroke-linecap="round"/>
<path id="Vector_142" d="M166.763 16.3707V176.669" stroke="var(--stroke-0, #F0EEED)" stroke-width="0.0700817" stroke-miterlimit="10" stroke-linecap="round"/>
<path id="Vector_143" d="M81.3046 36.7917V170.109" stroke="var(--stroke-0, #F0EEED)" stroke-width="0.0700817" stroke-miterlimit="10" stroke-linecap="round"/>
<path id="Vector_144" d="M185.532 52.1923V155.578" stroke="var(--stroke-0, #F0EEED)" stroke-width="0.0700817" stroke-miterlimit="10" stroke-linecap="round"/>
<path id="Vector_145" d="M120.619 77.8762V181.262" stroke="var(--stroke-0, #F0EEED)" stroke-width="0.0700817" stroke-miterlimit="10" stroke-linecap="round"/>
<path id="Vector_146" d="M0.0584173 80.9893L174.209 0.0350492" stroke="var(--stroke-0, #F0EEED)" stroke-width="0.0700817" stroke-miterlimit="10" stroke-linecap="round"/>
<path id="Vector_147" d="M188.857 64.4699L157.196 0.0350492" stroke="var(--stroke-0, #F0EEED)" stroke-width="0.0700817" stroke-miterlimit="10" stroke-linecap="round"/>
<path id="Vector_148" d="M149.033 41.7464V97.0921" stroke="var(--stroke-0, #F0EEED)" stroke-width="0.233606" stroke-miterlimit="10" stroke-linecap="round"/>
<path id="Vector_149" d="M23.0998 117.881H56.4102V142.647L23.0998 137.205V117.881Z" stroke="var(--stroke-0, #F0EEED)" stroke-width="0.233606" stroke-miterlimit="10" stroke-linecap="round"/>
<path id="Vector_150" d="M25.2108 117.881V136.816L23.0998 137.205" stroke="var(--stroke-0, #F0EEED)" stroke-width="0.233606" stroke-miterlimit="10" stroke-linecap="round"/>
<path id="Vector_151" d="M25.2111 136.816L56.4105 141.626" stroke="var(--stroke-0, #F0EEED)" stroke-width="0.233606" stroke-miterlimit="10" stroke-linecap="round"/>
<path id="Vector_152" d="M26.2222 117.881V136.065L56.4099 140.188" stroke="var(--stroke-0, #F0EEED)" stroke-width="0.233606" stroke-miterlimit="10" stroke-linecap="round"/>
<path id="Vector_153" d="M39.7529 117.881V137.913" stroke="var(--stroke-0, #F0EEED)" stroke-width="0.233606" stroke-miterlimit="10" stroke-linecap="round"/>
<path id="Vector_154" d="M42.2564 138.124V117.881" stroke="var(--stroke-0, #F0EEED)" stroke-width="0.233606" stroke-miterlimit="10" stroke-linecap="round"/>
<path id="Vector_155" d="M41.3191 117.881V138.124" stroke="var(--stroke-0, #F0EEED)" stroke-width="0.233606" stroke-miterlimit="10" stroke-linecap="round"/>
<path id="Vector_156" d="M26.2222 136.065H26.9849V117.881" stroke="var(--stroke-0, #F0EEED)" stroke-width="0.233606" stroke-miterlimit="10" stroke-linecap="round"/>
</g>
</svg>
